<svg xmlns="http://www.w3.org/2000/svg" viewBox="0 0 800 600" role="img" aria-label="Dengs placeholder">
  <rect width="800" height="600" fill="#A1E4F4"/>
  <g fill="#F09F29" stroke="#211E1C" stroke-width="6">
    <circle cx="400" cy="340" r="180"/>
    <circle cx="300" cy="210" r="44"/>
    <circle cx="500" cy="210" r="44"/>
  </g>
  <circle cx="400" cy="360" r="120" fill="#E4C9A3" stroke="#211E1C" stroke-width="6"/>
  <circle cx="360" cy="330" r="18" fill="#211E1C"/>
  <circle cx="440" cy="330" r="18" fill="#211E1C"/>
  <circle cx="366" cy="324" r="5" fill="#fff"/>
  <circle cx="446" cy="324" r="5" fill="#fff"/>
  <path d="M366 392 q34 34 68 0" fill="none" stroke="#A5251B" stroke-width="8" stroke-linecap="round"/>
  <circle cx="320" cy="372" r="16" fill="#F09F29" opacity="0.7"/>
  <circle cx="480" cy="372" r="16" fill="#F09F29" opacity="0.7"/>
  <g>
    <rect x="60" y="60" width="240" height="14" rx="7" fill="#A5251B"/>
    <rect x="60" y="60" width="192" height="14" rx="7" fill="#F09F29"/>
    <rect x="60" y="60" width="144" height="14" rx="7" fill="#4CAF50"/>
    <rect x="60" y="60" width="96" height="14" rx="7" fill="#2196F3"/>
    <rect x="60" y="60" width="48" height="14" rx="7" fill="#4F3869"/>
  </g>
  <text x="400" y="565" font-family="Georgia, serif" font-size="34" font-weight="bold" fill="#211E1C" text-anchor="middle">Dengs</text>
</svg>
