<svg xmlns="http://www.w3.org/2000/svg" viewBox="0 0 240 240" role="img" aria-label="BoringBrush">
  <defs>
    <linearGradient id="bb-rainbow" x1="0" y1="0" x2="0" y2="1">
      <stop offset="0%" stop-color="#ca2b1c"/>
      <stop offset="28%" stop-color="#e8862e"/>
      <stop offset="50%" stop-color="#ffd544"/>
      <stop offset="74%" stop-color="#2b8d65"/>
      <stop offset="100%" stop-color="#67548f"/>
    </linearGradient>
    <clipPath id="bb-left"><rect x="0" y="0" width="78" height="174"/></clipPath>
    <clipPath id="bb-right"><rect x="78" y="0" width="78" height="174"/></clipPath>
    <path id="bb-body" d="M 78 66 A 76 76 0 0 1 154 142 V 138 A 22 22 0 0 1 132 160 H 24 A 22 22 0 0 1 2 138 V 142 A 76 76 0 0 1 78 66 Z"/>
  </defs>

  <rect width="240" height="240" rx="50" fill="#a1e5f5"/>
  <rect x="4" y="4" width="232" height="232" rx="42" fill="none" stroke="#15110a" stroke-width="8"/>

  <g transform="translate(42, 32)">
    <ellipse cx="78" cy="159" rx="62" ry="12" fill="#6f6f6f" stroke="#15110a" stroke-width="6"/>

    <g clip-path="url(#bb-left)"><use href="#bb-body" fill="#8e8e8e"/></g>
    <g clip-path="url(#bb-right)"><use href="#bb-body" fill="url(#bb-rainbow)"/></g>
    <use href="#bb-body" fill="none" stroke="#15110a" stroke-width="6"/>

    <g clip-path="url(#bb-left)"><circle cx="78" cy="45" r="42" fill="#8e8e8e"/></g>
    <g clip-path="url(#bb-right)"><circle cx="78" cy="45" r="42" fill="url(#bb-rainbow)"/></g>
    <circle cx="78" cy="45" r="42" fill="none" stroke="#15110a" stroke-width="6"/>

    <rect x="76" y="8" width="4" height="150" rx="2" fill="#15110a"/>
  </g>
</svg>
